<svg xmlns="http://www.w3.org/2000/svg" viewBox="0 0 400 400">
  <style type="text/css">
    .st0 {
      fill: none;
      stroke: #333333;
      stroke-width: 16;
      stroke-miterlimit: 10;
    }
  </style>
  <circle class="st0" cx="200" cy="200" r="50"/>
  <path class="st0" d="M335.89,188.98l15.86-24.02c4.17-6.32,4.42-14.46,0.63-21.02l-27.64-47.87c-3.79-6.56-10.96-10.42-18.52-9.96
  	l-28.74,1.72c-7.99,0.48-15.5-3.86-19.09-11.02l-12.87-25.75C242.14,44.28,235.21,40,227.64,40h-55.28
  	c-7.58,0-14.5,4.28-17.89,11.06L141.6,76.8c-3.58,7.16-11.09,11.5-19.09,11.02L93.77,86.1c-7.56-0.45-14.73,3.4-18.52,9.96
  	l-27.64,47.87c-3.79,6.56-3.54,14.7,0.63,21.02l15.86,24.02c4.41,6.68,4.41,15.36,0,22.04l-15.86,24.02
  	c-4.17,6.32-4.42,14.46-0.63,21.02l27.64,47.87c3.79,6.56,10.96,10.42,18.52,9.96l28.74-1.72c7.99-0.48,15.5,3.86,19.09,11.02
  	l12.87,25.75c3.39,6.78,10.31,11.06,17.89,11.06h55.28c7.58,0,14.5-4.28,17.89-11.06l12.87-25.75c3.58-7.16,11.09-11.5,19.09-11.02
  	l28.74,1.72c7.56,0.45,14.73-3.4,18.52-9.96l27.64-47.87c3.79-6.56,3.54-14.7-0.63-21.02l-15.86-24.02
  	C331.48,204.34,331.48,195.66,335.89,188.98z"/>
</svg>
